<svg width="54" height="54" viewBox="0 0 54 54" fill="none" xmlns="http://www.w3.org/2000/svg">
<rect width="54" height="54" rx="27" fill="black"/>
<path d="M33.6844 25.8637C33.6726 23.8821 34.5886 22.3886 36.4385 21.2874C35.4039 19.8345 33.8386 19.0355 31.7753 18.8815C29.8216 18.7304 27.6842 19.9973 26.9015 19.9973C26.0744 19.9973 24.1831 18.9338 22.6949 18.9338C19.6236 18.9803 16.3596 21.3339 16.3596 26.1223C16.3596 27.5374 16.6235 28.9989 17.1512 30.5041C17.8567 32.4857 20.4003 37.341 23.0536 37.2626C24.441 37.2306 25.4222 36.2979 27.2276 36.2979C28.9797 36.2979 29.8868 37.2626 31.4343 37.2626C34.1113 37.2248 36.4118 32.8111 37.0818 30.8237C33.4917 29.1646 33.6844 25.9654 33.6844 25.8637ZM30.5687 17.0015C32.0717 15.2523 31.9353 13.6601 31.8909 13.0876C30.5628 13.1632 29.0271 13.9739 28.1526 14.9705C27.1891 16.0398 26.6229 17.3618 26.7444 18.8524C28.1793 18.9599 29.4896 18.2364 30.5687 17.0015Z" fill="white"/>
</svg>
