<svg width="54" height="54" viewBox="0 0 54 54" fill="none" xmlns="http://www.w3.org/2000/svg">
<rect width="54" height="54" rx="27" fill="#DFB9DC"/>
<path d="M32.3557 33.5372H22.1309V17.632H32.3557V33.5372ZM27.2433 38.0815C26.2966 38.0815 25.5392 37.3241 25.5392 36.3774C25.5392 35.4306 26.2966 34.6733 27.2433 34.6733C28.19 34.6733 28.9474 35.4306 28.9474 36.3774C28.9474 37.3241 28.19 38.0815 27.2433 38.0815ZM31.7876 14.2238H22.699C21.1312 14.2238 19.8588 15.4962 19.8588 17.064V36.3774C19.8588 37.9452 21.1312 39.2176 22.699 39.2176H31.7876C33.3554 39.2176 34.6279 37.9452 34.6279 36.3774V17.064C34.6279 15.4962 33.3554 14.2238 31.7876 14.2238Z" fill="black"/>
</svg>
